<svg height="58.693pt" viewBox="0 0 78.257 78.258" width="58.693pt" xmlns="http://www.w3.org/2000/svg"><g stroke-width="2.5716" transform="matrix(1.3333 0 0 -1.3333 -7.6819 199.54)"><path d="m0 0v-14.869c.014-4.423-4.405-7.952-8.492-8.525-2.337-.328-4.875-.031-6.943 1.146-1.967 1.136-4.099 3.326-4.831 5.468-.381 1.16-.329 2.017-.348 3.131l-.011 15.604c-2.441 7.271-14.821 9.686-21.555 10.498v-25.501c.075-2.027 2.054-5.465 4.284-7.453 5.805-5.153 20.2-7.311 27.733-7.311 7.869 0 22.143 1.757 28.167 7.331 2.096 1.929 3.592 4.685 3.648 7.598v25.325c-3.484-.436-9.313-1.876-13.836-3.886-3.575-1.577-7.816-4.221-7.816-8.556" transform="matrix(.38886 0 0 .38886 39.101 118.37)"/><path d="m0 0v-5.181c4.184-.284 8.379-1.311 12.098-2.91 3.944-1.72 7.278-4.326 9.474-7.737 0 .368 0 1.028.014 1.404-4.309 8.405-15.259 13.65-21.586 14.424" transform="matrix(.38886 0 0 .38886 22.704 126.32)"/><path d="m0 0v1.624c-1.094 2.864-4.382 7.595-8.656 11.016-4.272 3.416-9.126 5.276-12.942 5.985v-4.073c3.539-.381 7.988-1.886 11.911-4.414 4.299-2.759 7.938-6.668 9.687-10.138" transform="matrix(.38886 0 0 .38886 31.093 121.61)"/><path d="m0 0c6.855 0 12.442 5.575 12.442 12.418 0 6.834-5.587 12.415-12.442 12.415-6.852 0-12.438-5.581-12.438-12.415 0-6.843 5.586-12.418 12.438-12.418" transform="matrix(.38886 0 0 .38886 35.11 123.41)"/><path d="m0 0c3.718 1.619 7.913 2.641 12.086 2.925v5.174c-6.315-.767-17.264-6.015-21.586-14.415.012-.383.012-1.048.012-1.42 2.21 3.424 5.542 6.037 9.488 7.736" transform="matrix(.38886 0 0 .38886 42.812 123.09)"/><path d="m0 0c-4.274-3.416-7.559-8.149-8.657-11.01 0-.404.009-1.226.009-1.63 1.742 3.473 5.379 7.38 9.677 10.149 3.925 2.526 8.371 4.044 11.912 4.41v4.078c-3.816-.713-8.67-2.584-12.941-5.997" transform="matrix(.38886 0 0 .38886 42.489 126.44)"/><path d="m0 0c-24.186 0-43.795 19.047-43.795 42.542 0 23.494 19.609 42.538 43.795 42.538 24.19 0 43.798-19.044 43.798-42.538 0-23.495-19.608-42.542-43.798-42.542m45.043 42.542c0 24.157-20.171 43.743-45.043 43.743-24.873 0-45.043-19.586-45.043-43.743 0-24.159 20.17-43.743 45.043-43.743 24.872 0 45.043 19.584 45.043 43.743" transform="matrix(.38886 0 0 .38886 35.108 103.77)"/><path d="m0 0-4.269-.898-.83 3.946 4.268.899-.317 1.511-9.963-2.098.319-1.512 4.35.917.832-3.945-4.353-.916.319-1.512 9.963 2.096z" transform="matrix(.38886 0 0 .38886 15.45 115.34)"/><path d="m0 0 1.252.559-1.722 3.862 2.649 1.182 2.021-4.528 1.331.592-2.649 5.941-9.294-4.146 2.649-5.939 1.331.593-2.02 4.53 2.728 1.218z" transform="matrix(.38886 0 0 .38886 15.017 110.14)"/><path d="m0 0 2.449 1.733 2.865-4.048 1.189.841-3.757 5.308-8.306-5.877.893-1.26 3.546 2.508 2.444-3.45 1.119.791z" transform="matrix(.38886 0 0 .38886 16.868 108.01)"/><path d="m0 0 3.594-3.416 1.006 1.055-4.713 4.483-7.012-7.376 4.712-4.479 1.006 1.054-3.595 3.418 2.057 2.166 3.067-2.918.946.996-3.067 2.914z" transform="matrix(.38886 0 0 .38886 20.378 105.58)"/><path d="m0 0 1.275-.871 5.751 8.398-1.274.873z" transform="matrix(.38886 0 0 .38886 21.19 100.49)"/><path d="m0 0c-.39-1.21-1.398-1.815-2.637-1.416-1.237.397-1.702 1.476-1.311 2.687l2.011 6.25-1.469.472-2.066-6.412c-.635-1.973.416-3.844 2.363-4.468 1.945-.628 3.89.278 4.526 2.25l2.065 6.411-1.47.475z" transform="matrix(.38886 0 0 .38886 28.862 98.359)"/><path d="m0 0-3.848 7.594-1.595.14-.879-10.143 1.538-.133.625 7.207 3.847-7.596 1.596-.137.879 10.139-1.539.136z" transform="matrix(.38886 0 0 .38886 33.958 97.259)"/><path d="m0 0 .889-10.139 1.537.133-.887 10.14z" transform="matrix(.38886 0 0 .38886 36.596 100.11)"/><path d="m0 0-4.179 6.937-1.58-.402 5.622-9.079 1.441.368.617 10.659-1.58-.401z" transform="matrix(.38886 0 0 .38886 40.842 97.762)"/><path d="m0 0-1.295 2.694 3.814 1.838-.594 1.236-3.815-1.835-1.26 2.617 4.472 2.15-.632 1.316-5.863-2.822 4.414-9.177 5.864 2.822-.633 1.314z" transform="matrix(.38886 0 0 .38886 44.857 98.763)"/><path d="m0 0-1.848-1.416-1.879 2.449 1.917 1.471c.761.581 1.583.636 2.201-.168.617-.808.393-1.734-.391-2.336m1.548 3.221c-1.078 1.406-2.854 1.395-4.181.381l-3.155-2.417 6.192-8.079 1.225.939-2.643 3.449 1.565 1.2 4.312-2.171 1.452 1.114-4.619 2.151c.713 1.087.643 2.401-.148 3.433" transform="matrix(.38886 0 0 .38886 48.637 102.98)"/><path d="m0 0c-1.31 1.131-2.789.856-4.038-.198-.714-.611-1.807-1.859-2.793-1.01-.748.644-.591 1.548.003 2.24.59.68 1.397 1.138 2.239 1.392l-.405 1.481c-1.122-.317-2.182-.912-2.955-1.812-1.204-1.397-1.396-3.176.09-4.452 1.277-1.101 2.697-.832 3.929.182.819.692 1.785 1.987 2.923 1.011.813-.701.337-1.78-.242-2.452-.68-.79-1.633-1.327-2.652-1.526l.215-1.522c1.436.195 2.657.936 3.598 2.029 1.231 1.432 1.681 3.27.088 4.637" transform="matrix(.38886 0 0 .38886 53.505 106.29)"/><path d="m0 0 8.687-5.311.807 1.315-8.688 5.314z" transform="matrix(.38886 0 0 .38886 52.232 109.5)"/><path d="m0 0-1.267.527-2.739-6.572 1.266-.528 1.073 2.573 8.13-3.387.593 1.424-8.129 3.389z" transform="matrix(.38886 0 0 .38886 54.824 113.59)"/><path d="m0 0-5.22 4.24-.341-1.591 3.968-3.055-4.868-1.168-.339-1.593 6.495 1.74 4.097-.872.303 1.425z" transform="matrix(.38886 0 0 .38886 57.245 115.86)"/><path d="m0 0c1.231 0 2.242 1.008 2.242 2.244 0 1.235-1.011 2.236-2.242 2.236-1.242 0-2.257-1.001-2.257-2.236 0-1.236 1.015-2.244 2.257-2.244" transform="matrix(.38886 0 0 .38886 12.759 118.7)"/><path d="m0 0c1.238 0 2.248 1.004 2.248 2.245 0 1.24-1.01 2.238-2.248 2.238-1.241 0-2.242-.998-2.242-2.238 0-1.241 1.001-2.245 2.242-2.245" transform="matrix(.38886 0 0 .38886 57.39 118.7)"/><path d="m0 0c-39 0-70.616 31.612-70.616 70.616 0 38.998 31.616 70.618 70.616 70.618 39.001 0 70.619-31.62 70.619-70.618 0-39.004-31.618-70.616-70.619-70.616m0 143.51c-40.257 0-72.896-32.643-72.896-72.895 0-40.257 32.639-72.898 72.896-72.898 40.26 0 72.896 32.641 72.896 72.898 0 40.252-32.636 72.895-72.896 72.895" transform="matrix(.38886 0 0 .38886 35.108 92.85)"/><path d="m0 0c.142.038.109.053.317-.021.451-.164 2.233-1.025 2.335-1.338.034-.106.03-.151-.02-.196-.215-.19-.371-.388-.644-.381-.136.004-.102.021-.176.121-.266.356-1.787 1.341-2.009 1.41-.093.029-.115.059-.124.119-.032.203.15.24.321.286m6.28.595c.282-.129.54-.387.661-.72.062-.17.072-.172.221-.272.513-.342.439-1.18.543-1.756.014-.08-.065-.151-.146-.17-.71-.167-.855.927-1.288 1.211-.092.061-.378-.014-.472.119-.506.545-.119 1.059.25 1.514.092.113.103.133.231.074m.553-3.741c-.416-.22-.655-.022-.95.042-.358.076-.293-.012-.498.158-.205.173-.461.238-.796.112-.174-.066-.195-.062-.291.006-.477.34-.795.904-.495 1.411.126.213.161.223.398.221.354-.005.713-.114 1.107-.1.234.007.221.039.48-.187.504-.439 1.118-.985 1.045-1.663m-8.309 2.939c.111-.064.816-.452 1.683-1.166.988-.815 2.16-2 2.418-2.649.285-.318.514-.716.697-1.06.771-.762 1.179-1.881 1.893-3 .114-.189-.028-.346-.191-.429-.864.073-1.672.678-2.348 1.178-.089.065-.089.183-.17.257-.253.23-.663.309-.89.543-.096.099-.1.214-.134.046-.14-.704.785-1.711 1.223-2.169.856-.9 2.087-2.101 3.216-2.349.445-.097.765.041 1.177.06.134.12.15.226.15.331.001.12.023.2-.012.311-.294.942-.7 1.695-1.155 2.721-.069.156-.144.2-.022.311.312.286.672.21.982.117.783-.236 1.628-.737 2.564-.622.269.032.198.045.438-.043.481-.178 1.137.235 1.575.607.09.06.309.429.246.494-.121 1.184-.757 1.709-1.424 2.547-.049.076-.196-.079-.227.039.116.172-.21.475-.36.458-.068-.008-.042-.051-.026-.1.161-.511.706-1.184.812-1.788.035-.2.03-.215-.073-.379-.152-.246-.343-.479-.675-.667-.157-.088-.165-.095-.343-.089-.202.009-.401.029-.624-.01-.155-.028-.128-.048-.278.039-.193.112-.328.253-.562.324-.406.125-1.058-.044-1.313.355-.199.311.017.604.04.829.036.351-.186.72-.101.909.365.802 1.471.665 2.265.986.115.047.134.095.24.001.082-.073.146-.19.242-.236.097-.049.123-.031.094.066-.091.303-.507.522-.644.901-.157.434.096 1.086.697 1.225.938.217 1.35-1.208 2.479-.73.159.435-.266.479-.621.671-.493.267-.799.557-1.205.691.024.494.751.47 1.122.751.243.183.246.401.48.552-.077.294-.257.209-.198.435-.381.126-.923.062-1.515-.12-.245-.074-.519-.023-.739-.098-.451-.152-.848-.484-1.354-.474-.205.004-.645.135-.839.236-.545.284-.496.82-.011 1.283.194.187.554.281.865.435.139.068.137.053.195.186.106.236.25.448.292.699.021.125.037.159-.071.225-.265.161-1.153-.429-1.461-.577-.718-.344-2.063-1.348-2.612-.81.339.414.976.695 1.299 1.165.046.069-.02.187.022.296.095.251.25.221.177.415-.133.351-1.132.24-1.415.119-.128-.056-1.226-.907-1.535-1.113-.026-.017-.052-.035-.077-.053-.113-.082-.455-.3-.484-.316-.258-.143-1.139-.957-1.186-1.181-.024-.112-.004-.118.079-.16.236-.125.454-.294.791-.182.103.034.116.042.18.013.292-.133.573-.287.845-.475.144-.1.122-.126.137-.234.035-.258.263-.488-.202-.684-.487-.205-1.358.165-1.72.55-.191.203-.093.153-.367.3-1.424.769-2.808 2.331-4.552 2.466-.357.027-1.131-.213-1.476-.435-.833-.54-.698-1.789.093-2.153.827-.381 2.628-.084 3.504-.592" transform="matrix(.38886 0 0 .38886 54.431 132.88)"/><path d="m0 0c-.744.171-.941.076-1.4.888-.09.16-.236.342-.281.481-.359.604-.185 1.428-.182 1.454-.045.193.19.298.14.493.82.838 1.822-.216 2.271-1.152.211-.441.099-.27.439-.598.486-.468.828-1.259.149-1.764-.37-.12-.717.1-1.136.198m4.918-4.514c.559-.476.705-.056.693-.004-.035.539-.404 1.125-.599 1.643-.414 1.103-.389 1.615-1.219 2.75-.159.249-.647 1.577.426 2.574.875.504 1.852-.934 2.514.337-.052.802-.339 1.039-.732 1.717-.058.056-.199.73-.295 1.106-.184.715-.976 1.389-1.696.849-.177-.134-.249-.48-.234-.632.035-.347.573-.677.634-1.047.045-.267-.143-.453-.242-.73-.816-.455-1.723.53-2.001-.012-.257-.497.615-1.41-.3-1.683-.156.072-.394.067-.536.167-.008.218-.226.31-.337.461-.043.057-.285.288-.372.354-.136.107-.331.316-.462.424-.438.231-1.633 1.472-2.103 1.829-1.099.472-.719-.737-.891-1.443-.064-.269-.264-2.296-.022-3.161-.133-.598-.24-1.412.114-1.855.049-.062.177-.082.281-.159.324-.235.636-.487 1.054-.473.291.01.333-.038.559-.078.489-.09 1.016-.085 1.44-.15.544-.082.274-.158.826.01.817.247 1.015 0 1.694-.076.431 0 .927-1.868 1.481-2.283.165-.125.169-.301.325-.435" transform="matrix(.38886 0 0 .38886 52.125 129.11)"/><path d="m0 0c3.21 3.155 2.148 4.912 1.649 5.689-.525.813-1.069 1.264-1.029 1.524.054.357.621.431.621.431 3.173-.234 3.6-2.822 3.6-2.822.065-1.749-2.242-4.947-2.242-4.947.227-.184 1.003-.229 1.003-.229 1.388-.174 1.649.392 1.649.392.765.432 1.505-.012 2.234-.846.654-.739 1.126-.913 1.492-1.097.14-.071.329-.15.465-.278.225-.21-.12-.866-.499-.693-.447.143-1.36.407-1.528.451-2.519.7-5.319.682-6.408.827-.669-.716-1.573-1.454-2.808-2.225 4.256-2.281 7.537-6.583 7.086-9.326-.02-.121-.155-.337-.555-.22-.506.149-.99.567-1.525 1.355-1.06 1.306-2.443 2.615-3.79 3.321-.35.157-.086.27-.086.27l.996-.024c.349-.021.285.044.191.364-.814 1.854-1.711 2.761-3.186 3.83-2.249-1.345-4.719-2.764-6.853-2.651-.612.133-1.245.826-1.875 1.477 0 0-.437.483.367.511 3.625.406 6.45 1.115 9.499 3.766-1.089.224-2.34.205-3.138.343-.76.208-1.262.431-1.526.956l-.694 1.946c.316.306.656.293 1.034-.197.765-.604 1.917-1.088 3.633-1.4z" transform="matrix(.38886 0 0 .38886 43.77 141.38)"/><path d="m0 0c-.289-.169-.755.156-1.052.26-.402.143-.689.144-.966.396.217.971.892 2.088 2.12 2.381.155-.352.181-.785.179-1.224-.002-.367.077-1.605-.281-1.813m-4.341-2.125c-.373-.343-1.176-.742-1.667-.877-.525 1.115-1.67 2.836-1.799 2.937-.39.304.445.618.734.047.158-.311.25-.569.335-.91.413.568.445 1.678 1.144 1.814.233-1.168.891-2.221 1.253-3.011m13.577 3.197c-.42-.221-1.124-.672-1.319-.773-1.313-.682-5.107-1.675-6.027-1.35-.402.142-.724-.001-.777.416-.035.278.708.875.939 1.14.669.767 1.315 1.283 1.94 1.907.266.266.521.484.75.705.135.131.44.476.38.674-.389 1.276-1.715-.167-2.712-.382-1.009-.216-1.776.414-2.21 1.341.187.759.648 1.553 1.366 2.044.296.203.329.153.529-.188.484-.819.046-1.938.091-2.801.239.047.46.219.647.369.332.269.536.606.791.93.04.06.214.111.37.333.196.274.355.585.42.896.076.369.044.458.126.756.139.511.12 1.146-.184 1.463-.471.492-1.37.462-2.112.294-.704-.159-2.343-2.017-3.027-3.234-.462-.822-1.94-4.338-2.068-4.654-.196-.49-.249-1.391-.734-1.733-.11.126-1.256 3.048-1.3 3.675-.019.27-.106.441-.149.706-.216 1.311-.518 1.913.064 3.094.049.099.831 1.251.021 1.103-.741-.105-1.513-.063-1.883-.555-.189-.25-.279-.58-.435-.824-.526-.828-1.218-1.982-2.259-2.572-.292-.178.216-.647.389-.553.762.263 2.326 1.213 2.469 1.956.178-1.051.231-2.169.615-3.407-.263-.065-.563-.049-1.002-.194-.644-.213-1.1-.737-1.31-1.037-.702 1.014-1.516 1.834-1.777 2.005-.21.137-.422.256-.609.317-.167.055-.733.084-.155-.374.345-.273 1.345-1.715 2.236-3.085.723-1.111 1.318-2.194 1.499-2.554.259-.513.538-1.122.65-1.64.117-.541.189-.879.17-1.324-.023-.511-.019-.994-.219-1.297-.305-.463-1.082-.596-1.479-1.007-.128-.486 1.225-1.467 1.655-1.399.604.094.759.582.917.963.273.659.548 2.194.031 3.944.889.273 1.57.389 2.386.626.327-.624.421-.747.648-1.528.097-.206-.669-.422-1.229-.572.028-.244.242-.275.43-.367.186-.092.852-.515 1.036-.64.53-.36 1.006-.307 1.551-1.031.059-.232.342-.412.535-.233.222.205.558.346.651.586.142.373.175.678-.028 1.004-.339.543-.864 1.056-1.15 1.498-.271.421-1.64 2.405-1.973 2.942-.12.192-.295.468-.344.716-.046.232.097.715.349.906.433.324.571.022.936-.209.33-.209.682-.302.967-.437.396-.187.545-.348 1.07-.571.562-.236 1.203-.407 1.792-.517.89-.167 2.245.015 3.314.409 3.904 1.442 4.041 2.443 4.07 3.204.003.063-.236.168-.329.12" transform="matrix(.38886 0 0 .38886 27.131 140.43)"/><path d="m0 0c.097-.477.259-.99.632-1.679.281-.365.633-.795.689-.711s-.704 1.654-.864 2.441c-.063.307-.317 1.637-.353 1.966-.087.792-.144 1.757.008 2.547.056.286.252 1.12.402 1.502.138.355-.273.333-.326.317-1.427-.432-1.771-2.701-2.154-4.04-.058-.2-.842-2.985-1.036-3.525-.142-.392-.166-.595.252-.357.347.198.69.574.875.799.576.7 1.025 1.869 1.417 2.617.043-.548.288-1.369.458-1.877" transform="matrix(.38886 0 0 .38886 15.726 129.19)"/><path d="m0 0c-.966-.598-1.743-.959-3.354-1.452-1.018-.31-2.069-.497-3.085-.816-.752-.254-1.383-.731-1.46-.759-.067-.023-.541-.302-.799-.508-.067.167-.254.497-.351.685-.105.202-1.181 2.11-2.112 2.517-.886.764-2.354-.661-2.458-1.171-.031-.154-.134-.355-.179-.499.441-.428.464.046.669.107.214.063.373.211.619.142 1.185-.528 1.57-1.165 2.092-2.068.946-1.637 3.256-5.806 4.507-10.931.217-.889.283-2.036.117-2.86-.078-.283.154-.477.294-.228 1.641 2.913.159 6.945-.542 8.805-.847 2.251-2.008 4.109-2.514 5.203-.033.085-.071.171.177.262.812.298 2.796.439 3.441.505.564.057 3.643.45 4.033.579.614.205 2.632.477 3.626 2.347.165.264.281 1.391.404 2.031.146.762-.618.039-.857-.15-.59-.465-1.62-1.34-2.268-1.741" transform="matrix(.38886 0 0 .38886 16.528 133.04)"/><path d="m0 0c-.305-.145-.601-.166-.82-.44-.192-.24-.508-1.546-.834-1.47-.178.041-.218.395-.291.604-.247.695-1.132 2.796-1.417 3.292-.222.387-.552.731-1.093.958-.278.071-.607.004-.753-.098-.127-.243-.48-.478-.525-.594-.204-.508-.038-.927-.019-1.36.032-.759-.109-1.565-.239-2.313-.155-.899-.34-1.865-.738-2.823-.07-.171-.49-.078-.324-.3.358-.604 3.269-2.279 3.809-2.385.891-.174 2.048.405 2.002 1.422-.189.81-1.726.842-2.426.805-.452-.024-.964.114-1.414.15-.421.035-.899.095-1.306.28.177.427.648.503.937.958.421.662.755 1.914 1.292 2.679.046.065.129.31.275-.007.315-.689.758-1.355.966-2.069.202-.685.254-1.437 1.047-1.811.195-.093.553-.048.735.07.062.131-.03.3.092.446.763 1.08 1.946 2.64 2.421 3.977.256.72-1.211.108-1.377.029" transform="matrix(.38886 0 0 .38886 19.003 129.77)"/></g></svg>