<svg height="74pt" viewBox="0 0 184 74" width="184pt" xmlns="http://www.w3.org/2000/svg"><g fill="#b81c22"><path d="m155.7622 25.293452a22.934 22.934 0 0 1 3.491-1.934c2.279-1.025 5.364-2.049 6.722-1.939a10.566 10.566 0 0 1 2.455-.3c2-.688 4.309-.436 6.881-.718.43-.035.581.349.585.705-.873 1.448-2.63 2.338-4.087 3.088-.192.1-.4 0-.6.075-.62.243-1.113.892-1.719 1.087-.256.082-.461-.01-.2.194 1.11.854 3.67.107 4.849-.263 2.313-.72 5.477-1.835 6.886-3.6a7.637 7.637 0 0 0 .911-2.108.767.767 0 0 0 -.448-.548 1.767 1.767 0 0 0 -.554-.248 49.469 49.469 0 0 0 -5.756-.331c-.332-.014-.473.078-.564-.23a1.83 1.83 0 0 1 .645-1.818c1.089-1.165 2.7-2.211 3.3-3.947.174-.5.092-.384.453-.728.726-.688.571-2.191.3-3.279-.026-.209-.483-.911-.651-.856-2.174-.811-3.641-.153-5.683.289-.175.019-.033.41-.266.363-.2-.352-1.01-.043-1.111.234-.046.126.053.117.152.132 1.032.16 2.678-.211 3.826.126a.735.735 0 0 1 .6.454 3.553 3.553 0 0 1 .582 1.758.875.875 0 0 1 -.141.675 5.413 5.413 0 0 0 -.521 1.1c-.086.3-.027.265-.307.452a4.859 4.859 0 0 0 -1.053.7c-.569.6-.837 1.887-1.755 1.989-.716.078-1.042-.55-1.416-.786-.582-.366-1.419-.3-1.675-.609-1.087-1.331.109-3.147.232-4.812.018-.242-.048-.318.206-.421a2.661 2.661 0 0 0 .623-.219c.169-.128.159-.19-.035-.223-.607-.1-1.351.435-2.132.348a1.893 1.893 0 0 1 -1.539-2.276c.43-1.827 3.277-1.317 3.416-3.7-.622-.655-1.068.05-1.709.5a17.4 17.4 0 0 0 -2.248 1.511c-.844-.468-.174-1.719-.344-2.611-.111-.582-.49-.777-.552-1.317-.58-.118-.587.269-.932-.029a5.214 5.214 0 0 0 -1.1 2.753c-.081.492-.408.926-.466 1.377-.124.92.113 1.9-.342 2.776a5.111 5.111 0 0 1 -1.139 1.264c-.966.708-1.861.159-2.252-1.089a7.433 7.433 0 0 1 -.012-1.888c0-.3.023-.285-.158-.5a5.756 5.756 0 0 0 -.971-1.115c-.2-.144-.244-.2-.452-.069-.513.324-.248 2.386-.256 3.052-.017 1.554.577 4.771-.84 5.267-.43-.95-.372-2.306-.914-3.278-.08-.141-.344-.126-.5-.294-.357-.383-.17-.627-.574-.668-.728-.072-1.4 1.772-1.43 2.371-.013.273.527 2.927.62 3.646.008.062.017.122.027.181.045.27.132 1.054.135 1.12a8.868 8.868 0 0 0 1.04 3.093c.176.139.2.108.349 0 .422-.306.906-.54 1-1.226.029-.209.026-.239.132-.326a10.8 10.8 0 0 1 1.562-1.067c.3-.165.325-.105.526-.038.482.163 1.081-.037 1.022.944-.062 1.031-1.461 2.233-2.447 2.533a1.559 1.559 0 0 0 -.842.382c-2.575 1.826-6.5 2.9-8.244 5.83a6.4 6.4 0 0 0 -.515 2.956 2.447 2.447 0 0 0 3.845 1.7c1.395-1.119 2.434-4.524 4.079-5.617zm12.316-11.988c.026.919-.527 1.164-.893 1.626-.443.559-.232.521-.708.732a1.45 1.45 0 0 0 -.882 1.3c-.037.361-.06.394-.263.5-1.007.541-2.268.61-2.9-.353-.264-.4-.251-.475-.042-.887.314-.615.815-1.148 1.132-1.849.189-.416.121-.42.74-.678 1.21-.503 2.695-1.104 3.816-.391zm-7.019-2.265a2.523 2.523 0 0 1 1.832-.533.756.756 0 0 0 .666-.152c1.041-.6 2.441.253 3.539.569a.331.331 0 0 1 .171.4c-.32 1.385-2.36.693-3.23 1.205-.186.109-.3.673-.615.724-1.391.412-1.956-.708-2.433-1.746-.119-.257-.143-.293.07-.467zm-4.384 11.495c.056-.281 0-.237.312-.536.674-.646 3.721-3.018 4.355-2.926.216.032.289.078.325.2.147.539.36.984.111 1.454-.125.235-.126.161-.364.205a18.631 18.631 0 0 0 -4.2 2.294c-.13.137-.2.149-.315.113-.384-.117-.292-.465-.225-.804z"/><path d="m180.6272 36.569452c1.316-.565.707-1.184.607-1.209a12.722 12.722 0 0 0 -3.39-.371c-2.286-.229-3.161-.715-5.863-.246a4.207 4.207 0 0 1 -4.133-2.967c-.124-1.966 3.233-2.432 1.582-4.687-1.447-.6-2.11-.306-3.635-.2a17.62 17.62 0 0 1 -2.188-.438c-1.409-.3-3.272.506-2.95 2.23a1.653 1.653 0 0 0 .9.957c.637.238 1.678-.418 2.377-.206.506.153.67.643 1.068 1.055.09 1.821-2.416 2.554-1.708 3.51.647.878 3 .143 2.684 1.978-.261.209-.458.631-.757.793-.387-.174-.735.128-1.1.192a7.185 7.185 0 0 0 -.941.342c-.3.147-.839.307-1.14.443-.782.565-3.984 1.583-5.015 2.1-1.774 1.515.669 1.9 1.754 2.806a20.653 20.653 0 0 0 5.506 2.769c.931.749 2.262 1.638 3.343 1.4.15-.031.3-.239.52-.354a3.356 3.356 0 0 0 1.737-1.434 3.54 3.54 0 0 1 .62-.91c.58-.777 1.026-1.7 1.506-2.389.612-.88.512-.342.7-1.452.274-1.643.876-1.775 1.6-2.9.372-.754 4.066-.006 5.271-.617.365-.186.677-.037 1.045-.195zm-12.141 4.7c-.942 1.153-.945 1.579-2.761 1.681a6.994 6.994 0 0 1 -1.085.075 4.509 4.509 0 0 1 -2.7-.936c-.376-.089-.356-.59-.741-.673-.757-2.157 1.951-3 3.977-2.973a2.15 2.15 0 0 0 1.424-.253c1.24-.444 2.918-.36 3.212 1.265-.108.749-.793 1.165-1.329 1.814z"/><path d="m116.1472 24.610452c3.1-8.213-.221-10.453-1.742-11.421-1.6-1.008-2.927-1.36-3.07-1.853-.2-.676.747-1.272.747-1.272 5.807-2.185 8.683 2.046 8.683 2.046 1.549 3.042.083 10.591.083 10.591a5.187 5.187 0 0 0 1.963-.415c2.6-.83 2.6-2.046 2.6-2.046 1-1.391 2.672-1.21 4.646-.332a7.75 7.75 0 0 0 3.54.719 3.752 3.752 0 0 1 1.051.111c.568.187.5 1.632-.315 1.635-.91.114-2.742.4-3.075.455-5.031.823-9.973 3.149-12.019 3.785a26.98 26.98 0 0 1 -3.147 6.237c9.4.552 18.732 5.477 20.18 10.7.064.23 0 .722-.8.842a5.92 5.92 0 0 1 -3.81-1.148 26.008 26.008 0 0 0 -9.428-2.774c-.748.009-.374-.407-.374-.407l1.782-.774c.636-.249.47-.311.04-.8a16.332 16.332 0 0 0 -8.774-4.168c-2.88 4.222-6.088 8.757-9.959 10.306-1.192.265-2.879-.444-4.529-1.078 0 0-1.168002-.5.233-1.205 6.083-3.689 10.5-7.258 13.726-14.447-2.111.5-4.308 1.553-5.835 1.963-1.515.254-2.586.27-3.484-.443l-2.82-2.876c.307-.8.92-1.055 1.991-.5a15.916 15.916 0 0 0 7.577-.5z"/><path d="m89.882198 34.506452c-.963.086-2.64.383-3.086.42-3 .252-10.911-.852-12.385-2.183-.644-.581-1.362-.566-1.135-1.392.152-.549 2.016-1.09 2.658-1.407 1.857-.919 3.476-1.381 5.14-2.064.709-.292 1.357-.5 1.962-.738.355-.139 1.2-.549 1.241-.969.27-2.7-3.353-1.029-5.394-1.406-2.067-.385-3.015-2.169-3.1-4.252a7.172 7.172 0 0 1 4.168-2.772c.715-.149.739-.031.847.766.268 1.92-1.431 3.681-2.023 5.337a3.268 3.268 0 0 0 1.505-.187 10.742 10.742 0 0 0 2.215-1.126 3.726 3.726 0 0 0 .957-.337 4.994 4.994 0 0 0 1.49-1.355c.433-.634.444-.826.83-1.322a3.345 3.345 0 0 0 .8-2.894c-.5-1.294-2.212-1.942-3.738-2.207-1.448-.252-5.985 1.956-8.223 3.707-1.513 1.185-7.045 6.635-7.532 7.129-.752.766-1.557 2.418-2.738 2.683a44.842 44.842 0 0 1 .437-7.927 14.341 14.341 0 0 0 .272-1.443c.622-2.632.525-4 2.545-5.765.169-.148 2.54-1.7.9-2.057-1.475-.384-2.893-1.066-3.974-.433-.551.324-.979.871-1.463 1.209-1.636 1.143-3.841 2.771-6.261 3.065-.686.1-.1 1.386.3 1.343 1.637.1 5.323-.458 6.171-1.744a47.856 47.856 0 0 0 -1.51 6.887 15.475 15.475 0 0 0 -2.036-.42 5.658 5.658 0 0 0 -3.275.924 19.94 19.94 0 0 0 -1.769-5.16 5.579 5.579 0 0 0 -.9-1.075c-.271-.233-1.312-.732-.583.581a46.2 46.2 0 0 1 1.786 7.551c.488 2.654.758 5.157.818 5.973a15.3 15.3 0 0 1 -.065 3.592 9.826 9.826 0 0 1 -.717 2.621 5.616 5.616 0 0 1 -1.427 2.267c-.936.63-2.5.272-3.568.735-.621.812 1.153 3.715 2.015 3.925 1.208.3 1.883-.5 2.477-1.092a12.983 12.983 0 0 0 3.149-7.389c1.884.182 3.254.5 4.975.693a12.218 12.218 0 0 1 .021 3.38c.021.462-1.589.268-2.758.112-.139.481.24.7.52 1.025s1.2 1.636 1.446 2.017c.715 1.09 1.65 1.364 2.109 3.151-.072.482.32 1.043.823.858.577-.212 1.32-.214 1.681-.592a2.108 2.108 0 0 0 .735-1.91c-.212-1.283-.8-2.66-.987-3.715-.182-1-1.2-5.8-1.406-7.074a4.92 4.92 0 0 1 -.084-1.616 2.284 2.284 0 0 1 1.364-1.43c1.069-.27 1.091.408 1.6 1.127a15.662 15.662 0 0 0 1.475 1.579c.6.661.753 1.082 1.564 1.91a18.312 18.312 0 0 0 2.964 2.377 14.3 14.3 0 0 0 6.549 1.826c8.468.348 9.509-1.427 10.16-2.834.042-.116-.321-.502-.532-.483zm-28.026-4.627a10.2 10.2 0 0 1 -3.82.344 39.664 39.664 0 0 0 -1.08-6.93c-.5-.878 1.319-.813 1.416.485a8.044 8.044 0 0 1 -.083 1.973c1.222-.743 2.151-2.8 3.571-2.514-.475 2.379-.063 4.876-.004 6.642zm9.823-.593c-.676.092-1.3-.885-1.772-1.314-.643-.584-1.184-.809-1.505-1.5a6.164 6.164 0 0 1 5.854-2.813 6.217 6.217 0 0 1 -.621 2.439c-.294.688-1.116 3.076-1.953 3.188z"/><path d="m18.615198 30.684452a11.3 11.3 0 0 0 -2.038 2.845c-.288.851-.6 1.886-.407 1.886s1.919-2.934 3.021-4.046c.431-.434 2.312-2.288 2.806-2.7a17.736 17.736 0 0 1 4.139-2.745 23.865 23.865 0 0 1 2.87-.978c.726-.16.245-.8.161-.871-2.247-1.846-6.3.054-8.885.883-.388.125-5.753 1.87-6.838 2.14-.79.2-1.145.376-.305.8a7.081 7.081 0 0 0 2.243.554 31.38 31.38 0 0 0 5.779-.538 18.267 18.267 0 0 0 -2.546 2.77z"/><path d="m36.908198 23.297452a24.374 24.374 0 0 1 -5.988-3.867c-1.606-1.313-3.047-2.815-4.666-4.117a14.379 14.379 0 0 0 -2.813-1.545 10.936 10.936 0 0 0 -1.689-.745c.2-.289.53-.95.731-1.311.213-.389 2.14-4.2 1.792-6.152.279-2.264-3.622-3.1-4.563-2.717-.284.116-.721.169-1 .249-.217 1.178.577.7.9.97s.747.376.9.85a7.926 7.926 0 0 1 -1.088 5.633 83.21 83.21 0 0 1 -12.84 19.153 14.161 14.161 0 0 1 -4.511 3.289c-.542.181-.607.768-.051.725 6.5-.5 11.434-7.27 13.691-10.42 2.732-3.813 4.486-7.71 5.712-9.715.1-.146.2-.3.616 0a38.365 38.365 0 0 1 4.546 5.032c.7.853 4.678 5.421 5.31 5.914 1 .774 3.624 3.75 7.735 3.335a23.8 23.8 0 0 0 3.73-1.544c1.4-.589-.605-1.045-1.171-1.228-1.394-.451-3.929-1.173-5.283-1.789z"/><path d="m30.197198 42.707452c-.566-.337-.92-.794-1.6-.853-.6-.052-3.057.852-3.287.24-.126-.332.4-.78.665-1.126.858-1.155 3.307-4.865 3.8-5.865a4.263 4.263 0 0 0 .371-2.811 2.042 2.042 0 0 0 -.975-1.114c-.532.057-1.3-.261-1.532-.209-1.046.22-1.545.945-2.227 1.444a21.822 21.822 0 0 1 -4.009 2.119 25.185 25.185 0 0 1 -5.377 1.863c-.353.07-.658-.711-.838-.2-.592 1.235-.153 7.771.26 8.76.684 1.635 2.876 2.884 4.476 1.707 1.109-1.184-.506-3.712-1.324-4.807a21.657 21.657 0 0 1 -1.289-2.457 7.771 7.771 0 0 1 -.961-2.42c.883-.176 1.519.5 2.568.481 1.529-.035 3.921-.849 5.744-.807.155 0 .643-.126.287.452a31.343 31.343 0 0 1 -2.308 3.81c-.893 1.07-2.054 1.969-1.8 3.66a1.754 1.754 0 0 0 .911 1.116c.28-.042.454-.372.822-.335 2.578.067 6.39.3 9.073-.383 1.441-.367-1.142-2.083-1.45-2.265z"/></g><path d="m16.005198 72.511452h-1.833v-7.14h-8.1v7.14h-1.834v-15.655h1.834v6.867h8.1v-6.867h1.833zm12.4 0h-8.3v-15.655h7.948v1.659h-6.107v5.208h5.659v1.649h-5.659v5.481h6.459zm10.961-14h-6.11v5.415h5.655v1.649h-5.655v6.933h-1.834v-15.652h7.948zm11.267 14h-8.3v-15.655h7.948v1.659h-6.108v5.208h5.655v1.649h-5.655v5.481h6.463zm4.847 0h-1.83v-15.655h1.834zm21.693-6.332q0 6.594-5.95 6.594-5.7 0-5.7-6.343v-9.575h1.834v9.454q0 4.815 4.061 4.815 3.919 0 3.919-4.651v-9.618h1.834zm16.532 6.332h-2.249l-8.057-12.478a5.215 5.215 0 0 1 -.5-.983h-.065a16.119 16.119 0 0 1 .087 2.151v11.31h-1.836v-15.655h2.38l7.84 12.282q.491.764.633 1.048h.044a16.565 16.565 0 0 1 -.109-2.3v-11.03h1.832zm5.939 0h-1.834v-15.655h1.834zm15.754002-15.656-5.8 15.656h-2.02l-5.673-15.655h2.042l4.334 12.413a7.37 7.37 0 0 1 .317 1.387h.044a6.8 6.8 0 0 1 .36-1.408l4.422-12.391zm10.546 15.656h-8.3v-15.655h7.948v1.659h-6.114v5.208h5.655v1.649h-5.655v5.481h6.463zm14.236 0h-2.183l-2.62-4.389a9.561 9.561 0 0 0 -.7-1.043 3.983 3.983 0 0 0 -.693-.7 2.4 2.4 0 0 0 -.764-.4 3.142 3.142 0 0 0 -.923-.126h-1.507v6.66h-1.834v-15.657h4.673a6.659 6.659 0 0 1 1.894.257 4.238 4.238 0 0 1 1.507.781 3.627 3.627 0 0 1 1 1.3 4.326 4.326 0 0 1 .36 1.829 4.4 4.4 0 0 1 -.246 1.5 3.921 3.921 0 0 1 -.7 1.217 4.235 4.235 0 0 1 -1.092.912 5.573 5.573 0 0 1 -1.436.584v.044a3.3 3.3 0 0 1 .682.4 3.755 3.755 0 0 1 .551.529 7.015 7.015 0 0 1 .519.693q.257.388.573.9zm-9.389-14v5.681h2.489a3.775 3.775 0 0 0 1.272-.207 2.945 2.945 0 0 0 1.01-.595 2.7 2.7 0 0 0 .666-.95 3.18 3.18 0 0 0 .24-1.261 2.454 2.454 0 0 0 -.813-1.96 3.494 3.494 0 0 0 -2.353-.7zm10.808 13.363v-2.162a4.2 4.2 0 0 0 .89.59 7.208 7.208 0 0 0 1.092.442 8.69 8.69 0 0 0 1.152.278 6.422 6.422 0 0 0 1.07.1 4.191 4.191 0 0 0 2.527-.628 2.123 2.123 0 0 0 .835-1.807 2.122 2.122 0 0 0 -.278-1.1 3.136 3.136 0 0 0 -.77-.857 7.637 7.637 0 0 0 -1.163-.742q-.671-.355-1.447-.748-.819-.415-1.528-.841a6.623 6.623 0 0 1 -1.234-.939 3.917 3.917 0 0 1 -.824-1.163 3.6 3.6 0 0 1 -.3-1.523 3.581 3.581 0 0 1 .469-1.861 4.026 4.026 0 0 1 1.234-1.3 5.593 5.593 0 0 1 1.741-.764 7.973 7.973 0 0 1 1.992-.251 7.635 7.635 0 0 1 3.373.557v2.063a6.115 6.115 0 0 0 -3.559-.961 5.853 5.853 0 0 0 -1.2.126 3.392 3.392 0 0 0 -1.07.409 2.37 2.37 0 0 0 -.764.731 1.941 1.941 0 0 0 -.295 1.092 2.248 2.248 0 0 0 .224 1.037 2.542 2.542 0 0 0 .661.8 6.579 6.579 0 0 0 1.064.7q.628.338 1.447.742.841.415 1.594.873a7.285 7.285 0 0 1 1.321 1.015 4.512 4.512 0 0 1 .9 1.234 3.468 3.468 0 0 1 .333 1.55 3.931 3.931 0 0 1 -.453 1.96 3.718 3.718 0 0 1 -1.223 1.3 5.34 5.34 0 0 1 -1.774.726 9.716 9.716 0 0 1 -2.118.224 8.63 8.63 0 0 1 -.917-.06q-.546-.06-1.114-.175a9.088 9.088 0 0 1 -1.075-.284 3.346 3.346 0 0 1 -.812-.379zm14.444.633h-1.838v-15.651h1.834zm13.374-14h-4.52v14h-1.834v-14h-4.509v-1.659h10.863zm12.948-1.659-5.16 9.877v5.786h-1.834v-5.743l-5.033-9.913h2.085l3.5 7.074q.066.131.382.961h.033a5.742 5.742 0 0 1 .415-.961l3.668-7.074z" fill="#c1351f"/></svg>