<svg height="32pt" viewBox="0 0 37 32" width="37pt" xmlns="http://www.w3.org/2000/svg"><path d="m20.471865 27.639555c0-1.0622.29664-1.8902.88759-2.4806.10686-.10686.22073-.2038.34219-.2908.48642.1273.97168.25577 1.4564.38657 1.2788.34569 2.5612.7054 3.819 1.1206l.08759.0292c.10102.35387.15182.74803.15182 1.1819 0 .76029-.12905 1.3845-.3854 1.8709-.25577.48642-.6254.8654-1.1089 1.1369-.48467.27095-1.0867.40584-1.8091.40584-.73343 0-1.3413-.11679-1.8231-.34978-.48058-.23533-.86949-.60497-1.1696-1.1107-.29839-.50628-.44847-1.1399-.44847-1.9001zm2.0117.0088c0 .65752.12146 1.1288.36555 1.4172.24409.28613.57694.42978.99737.42978.43153 0 .76613-.14073 1.0026-.42102.2365-.28204.3562-.78657.3562-1.5136 0-.61431-.12438-1.061-.37139-1.3442-.24701-.28204-.58161-.42277-1.0061-.42277-.40467 0-.72993.14248-.97577.43036-.24526.28672-.36847.76204-.36847 1.4242"/><path d="m17.820865 29.815555h-2.2908l-.31533 1.0739h-2.0549l2.4461-6.508h2.1921l2.4473 6.508h-2.1045zm-.42102-1.4079-.72-2.3393-.71533 2.3393z"/><path d="m10.358865 30.889555h2.0151v-6.508h-2.0151z"/><g fill-rule="evenodd"><path d="m33.495865 5.569655c1.1685 3.6531 2.1185 7.1159 2.0467 10.294-.0654 2.8654-1.1918 5.3658-2.5401 7.5369-.54715.27095-1.092.56934-1.5971.92555.0023-.12146.0041-.24467.0053-.37139.01518-1.5556.59796-2.9436 1.5585-4.1495l.16642-.20905-.02686-.26628c-.18102-1.7524-.5273-3.4546-1.0727-5.0885.37314-2.8882.82861-5.7816 1.4599-8.6721"/><path d="m21.151865 1.000335c3.0108 2.8298 6.0526 5.7629 8.205 9.1235 1.9813 3.0955 2.7988 6.3451 3.1001 9.2736-.80934 1.0161-1.4669 2.2774-1.6508 3.7787l-.04788-.07708c-1.2882-2.0619-2.0549-4.4204-2.0292-6.8625l.0029-.26219-.17869-.19153c-1.3845-1.4838-2.8566-2.8876-4.4222-4.1769-1.5107-3.52-2.5185-7.0762-2.9793-10.606"/><path d="m8.5999652 3.946855c2.9675998 1.2064 6.5640998 2.6161 10.1729998 4.7101 3.6695 2.1291 6.7539 4.8415 9.3016 7.5726-.02336 2.2277.57985 4.7387 2.1285 7.2164.09752.15533.19387.30949.2873.46307-2.953-2.1145-5.6759-4.6879-7.7904-7.6444l-.10219-.14248-.16058-.07299c-2.087-.94365-4.2172-1.8324-6.3807-2.6242-3.3501-3.1258-5.875-6.3363-7.4563998-9.478zm19.2689998 23.556c.2073-.3638.34161-.72701.40876-1.0896.23241.27562.38131.55474.3819.81693.0018.44672-.4619.86832-.8362 1.1416.0327-.26102.04613-.52496.04613-.78482 0-.02803 0-.05606-.000584-.08409"/><path d="m2.4890652 10.450255c1.76.40467 4.553.93314 7.9806998 1.8686 3.8809 1.0593 7.8523 2.5869 11.698 4.327 2.0111 2.8117 4.7819 5.579 8.2435 8.0099.17752.12438.35212.24759.52263.37022-4.0187-1.6648-7.9509-3.6257-11.639-5.9182l-.08934-.05548-.10161-.02452c-2.4385-.59095-4.8923-1.1416-7.3565-1.6339-4.2200998-2.2815-7.3803998-4.6476-9.2577998-6.9436zm25.1279998 18.834c1.1574-.67504 1.6747-1.3436 1.6952-2.0099.11328.05431.22423.11036.33285.16876.16934.08993.80292.45723.88.6692-.04379.08934-.24467.23474-.31299.27971-.36496.24117-.83387.42569-1.2444.57168-.45314.16058-.91912.29839-1.388.42277.01285-.03387.02511-.06832.03737-.10219"/><path d="m1.2306452 16.082555c.8508.29022 2.901.62482 5.8564 1.1194 3.6303998.60788 7.6600998 1.4435 11.8619998 2.4619 3.955 2.4578 8.466 4.6972 13.308 6.602 4.1448 1.6304 6.9285 3.0085-5.4476 4.3182.12788-.12905.24467-.26803.35095-.41693 9.2514-2.2663.85956-4.3556-8.2902-6.7072-8.8811998-2.282-15.1189998-4.9045-17.6399998-7.3775"/></g></svg>