<svg height="42pt" viewBox="0 0 49 42" width="49pt" xmlns="http://www.w3.org/2000/svg"><g fill="#9f2925"><path d="m26.93 36.672c0-1.4141.39844-2.5195 1.1836-3.3086.14453-.14062.29688-.26953.45703-.38672.64844.17188 1.2969.34375 1.9453.51563 1.7031.46094 3.4141.94141 5.0898 1.4961l.11719.039063c.13672.47266.20312.99609.20312 1.5742 0 1.0156-.17188 1.8477-.51172 2.4961-.34375.64844-.83594 1.1562-1.4805 1.5156-.64844.36328-1.4492.54297-2.4141.54297-.97656 0-1.7891-.15625-2.4297-.46875s-1.1602-.80469-1.5625-1.4805c-.39844-.67578-.59766-1.5195-.59766-2.5352zm2.6836.015625c0 .875.16406 1.5039.48828 1.8867.32422.38281.76953.57422 1.3281.57422.57812 0 1.0234-.1875 1.3398-.5625.31641-.375.47266-1.0469.47266-2.0195 0-.81641-.16406-1.4141-.49219-1.7891-.33203-.37891-.77734-.56641-1.3438-.56641-.53906 0-.97266.19141-1.3008.57422-.32812.38281-.49219 1.0156-.49219 1.9023z"/><path d="m23.395 39.574h-3.0547l-.42188 1.4336h-2.7383l3.2617-8.6797h2.9258l3.2617 8.6797h-2.8047zm-.55859-1.875-.96094-3.1211-.95312 3.1211z"/><path d="m13.441 32.328h2.6875v8.6797h-2.6875z"/></g><g fill-rule="evenodd"><path d="m44.301 7.2383c1.5586 4.8711 2.8281 9.4922 2.7305 13.73-.085938 3.8203-1.5898 7.1562-3.3867 10.051-.73047.36328-1.457.76172-2.1328 1.2344.003906-.16016.007812-.32422.007812-.49609.019531-2.0742.79688-3.9258 2.0781-5.5312l.22266-.28125-.035156-.35547c-.24219-2.3359-.70312-4.6055-1.4297-6.7852.49609-3.8516 1.1055-7.7109 1.9453-11.566z" fill="#e67015"/><path d="m27.84 1.1445c4.0156 3.7734 8.0703 7.6836 10.941 12.168 2.6445 4.1289 3.7344 8.4609 4.1367 12.367-1.082 1.3555-1.957 3.0391-2.2031 5.0391l-.0625-.10156c-1.7188-2.75-2.7422-5.8945-2.707-9.1523l.003907-.34766-.23828-.25781c-1.8477-1.9766-3.8125-3.8516-5.8984-5.5703-2.0156-4.6953-3.3594-9.4375-3.9727-14.145z" fill="#d25f1b"/><path d="m11.098 5.0742c3.957 1.6094 8.7539 3.4883 13.566 6.2812 4.8945 2.8398 9.0078 6.457 12.406 10.102-.03125 2.9688.77344 6.3203 2.8398 9.625.12891.20703.25781.41016.38281.61719-3.9375-2.8203-7.5703-6.2539-10.391-10.195l-.13672-.19141-.21484-.097656c-2.7812-1.2578-5.6211-2.4453-8.5078-3.5-4.4688-4.168-7.8359-8.4492-9.9453-12.641zm25.699 31.418c.27734-.48828.45703-.97266.54688-1.4531.30859.36719.50781.73828.50781 1.0898.003907.59375-.61328 1.1562-1.1133 1.5195.042969-.34766.058594-.69922.058594-1.0469v-.10937z" fill="#be5022"/><path d="m2.9453 13.746c2.3477.53906 6.0742 1.2461 10.645 2.4922 5.1758 1.4141 10.473 3.4531 15.602 5.7734 2.6836 3.75 6.3789 7.4414 10.996 10.684.23828.16406.46875.32813.69531.49219-5.3594-2.2188-10.602-4.8359-15.523-7.8906l-.11719-.074219-.13672-.035156c-3.25-.78906-6.5234-1.5234-9.8125-2.1797-5.6289-3.043-9.8438-6.1992-12.348-9.2617zm33.516 25.121c1.543-.90234 2.2344-1.793 2.2617-2.6797.14844.070312.29688.14453.44141.22266.22656.12109 1.0742.61328 1.1758.89453-.058594.11719-.32812.3125-.41797.37109-.48828.32422-1.1133.57031-1.6602.76172-.60547.21484-1.2266.39844-1.8516.56641.019532-.046875.035156-.089844.050782-.13672z" fill="#af3e25"/><path d="m1.2695 21.262c1.1328.38672 3.8672.83203 7.8086 1.4922 4.8438.80859 10.219 1.9258 15.82 3.2812 5.2773 3.2812 11.293 6.2656 17.75 8.8086 5.5312 2.1719 9.2422 4.0117-7.2656 5.7578.17188-.17187.32813-.35937.46875-.55469 12.34-3.0234 1.1484-5.8086-11.055-8.9453-11.848-3.0469-20.168-6.543-23.527-9.8438z" fill="#9f2925"/></g></svg>