<svg height="15.078pt" viewBox="0 0 .34784 .35183" width="14.908pt" xmlns="http://www.w3.org/2000/svg"><g fill="none" stroke="#787878" stroke-linecap="round" stroke-linejoin="round" stroke-width=".023333" transform="translate(-.98618 -1.0261)"><path d="m1.2413008 1.1177621.020724.0002722.020724.0002722.00468.00237c.01546.00785.026136.026958.031085.055634.0016.00924.0019.028025.0006425.039328-.00248.022241-.00937.039946-.019902.051107-.00872.00924-.015582.012217-.030779.013325-.0098.0007078-.044201.00049-.090969-.0005717l-.019642-.0004627v.00242.00242l.014713.0004628c.00809.0002722.024636.0004628.036763.0004628.012128 0 .023028.0002722.024223.0004355l.00217.0004356v.015813c0 .023999-.00209.032514-.01002.040926-.015405.016325-.045134.023855-.082453.02088l.0000112-.000087c-.015707-.00125-.032436-.00499-.040558-.00906-.00952-.00477-.019524-.01378-.023069-.020773-.00409-.00807-.00508-.00994-.00537-.056032"/><path d="m1.0358034 1.2772023c-.015401-.00532-.026199-.021092-.032714-.047767-.0026-.010649-.003473-.023493-.00253-.037213.00139-.020145.00408-.031673.010388-.044481.00337-.00684.00474-.0088.00953-.013638.00605-.0061.01228-.00969.01985-.01145.00286-.0006533.018711-.00098.062923-.00128l.059099-.0004083v-.00452-.00452l-.038682-.0002722-.038683-.0002722-.0004192-.00155c-.0006724-.0025-.0004737-.026694.0002749-.033826.00114-.010851.00341-.016608.00879-.022363.00386-.00413.012167-.00832.020397-.010301.011857-.00285.017214-.00321.047975-.00321.031112 0 .038981.0005445.047952.00325.012262.00372.024808.01513.028532.025956.00241.007.00278.014158.00277.053511-.0000112.04171-.0001633.043528-.00401.050707-.00408.0076-.014972.0166-.024326.020093-.00389.00144-.00497.0015-.045015.00163-.043155.0002722-.055006.000735-.062298.00299-.010841.00337-.021162.012002-.025963.021723-.00457.00925-.00474.010385-.00507.035035l-.0002995.022314-.012979.0004628c-.018595.0006533-.021601.0005444-.025503-.0007895z"/></g><g fill="#787878" transform="translate(-.98035 -1.0261)"><path d="m1.1260704 1.0890138c.00463-.00309.0062-.00613.0062-.011983 0-.00448-.0002178-.00536-.00212-.00805-.00434-.00618-.012173-.0081-.018914-.00463-.010663.00549-.010159.020564.0008603.025744.00397.00185.010279.00139.013965-.00109z"/><path d="m1.1845175 1.3398089c-.00625-.00152-.010433-.00459-.01306-.00959-.00201-.00382-.00211-.01142-.0001905-.015277.00837-.016872.033781-.011164.033743.00758-.0000185.00919-.00651.016211-.015969.01727-.00172.0002722-.00375.0002722-.00452.0000136z"/></g></svg>